<svg width="365" height="150" viewBox="0 0 365 150" fill="none" xmlns="http://www.w3.org/2000/svg"
    xmlns:xlink="http://www.w3.org/1999/xlink">
    <g id="Frame 5" clip-path="url(#clip0_241_120)">
        <rect width="365" height="150" fill="$bg" />
        <rect id="Rectangle 14" width="150" height="150" fill="url(#pattern0_241_120)" />
        <g id="Frame 3">
            <text id="." fill="$title_color" xml:space="preserve" style="white-space: pre"
                font-family="Mulish" font-size="18" font-weight="bold" letter-spacing="0em"
                text-anchor="middle" alignment-baseline="middle"><tspan x="260.875" y="33.0449">$title</tspan></text>
            <text id="._2" fill="$color" xml:space="preserve" style="white-space: pre"
                font-family="Mulish" font-size="16" letter-spacing="0em" text-anchor="middle"
                alignment-baseline="middle"><tspan x="260.863" y="67.3359">$artist</tspan></text>
            <g id="Group 6">
                <g id="Group 3">
                    <circle id="Ellipse 5" cx="216.062" cy="94" r="10" fill="$title_color" />
                    <path id="Vector"
                        d="M219.755 98C219.701 98 219.647 97.9844 219.601 97.955L213.754 94.2883C213.708 94.259 213.669 94.217 213.642 94.1664C213.615 94.1158 213.601 94.0584 213.601 94C213.601 93.9416 213.615 93.8842 213.642 93.8336C213.669 93.783 213.708 93.741 213.754 93.7117L219.601 90.045C219.647 90.0157 219.7 90.0002 219.754 90.0001C219.808 90.0001 219.862 90.0154 219.908 90.0447C219.955 90.0739 219.994 90.116 220.021 90.1666C220.048 90.2173 220.062 90.2748 220.062 90.3333V97.6667C220.062 97.7551 220.03 97.8399 219.972 97.9024C219.915 97.9649 219.836 98 219.755 98ZM212.062 90H212.678V98H212.062V90Z"
                        fill="$color" />
                </g>
                <g id="Group 6_2">
                    <circle id="Ellipse 5_2" cx="10" cy="10" r="10"
                        transform="matrix(-1 0 0 1 318.938 84)" fill="$title_color" />
                    <path id="Vector_2"
                        d="M305.245 98C305.299 98 305.353 97.9844 305.399 97.955L311.246 94.2883C311.292 94.259 311.331 94.217 311.358 94.1664C311.385 94.1158 311.399 94.0584 311.399 94C311.399 93.9416 311.385 93.8842 311.358 93.8336C311.331 93.783 311.292 93.741 311.246 93.7117L305.399 90.045C305.353 90.0157 305.3 90.0002 305.246 90.0001C305.192 90.0001 305.138 90.0154 305.092 90.0447C305.045 90.0739 305.006 90.116 304.979 90.1666C304.952 90.2173 304.938 90.2748 304.938 90.3333V97.6667C304.938 97.7551 304.97 97.8399 305.028 97.9024C305.085 97.9649 305.164 98 305.245 98ZM312.938 90H312.322V98H312.938V90Z"
                        fill="$color" />
                </g>
                <g id="Group 4">
                    <circle id="Ellipse 6" cx="262.313" cy="94.5" r="12.5" fill="$title_color" />
                    <path id="Vector_3"
                        d="M259.813 88.0811H258.529C258.189 88.0811 257.862 88.2164 257.621 88.4571C257.38 88.6979 257.245 89.0244 257.245 89.3649V99.6352C257.245 99.9757 257.38 100.302 257.621 100.543C257.862 100.784 258.189 100.919 258.529 100.919H259.813C260.153 100.919 260.48 100.784 260.721 100.543C260.961 100.302 261.097 99.9757 261.097 99.6352V89.3649C261.097 89.0244 260.961 88.6979 260.721 88.4571C260.48 88.2164 260.153 88.0811 259.813 88.0811ZM266.232 88.0811H264.948C264.607 88.0811 264.281 88.2164 264.04 88.4571C263.799 88.6979 263.664 89.0244 263.664 89.3649V99.6352C263.664 99.9757 263.799 100.302 264.04 100.543C264.281 100.784 264.607 100.919 264.948 100.919H266.232C266.572 100.919 266.899 100.784 267.139 100.543C267.38 100.302 267.515 99.9757 267.515 99.6352V89.3649C267.515 89.0244 267.38 88.6979 267.139 88.4571C266.899 88.2164 266.572 88.0811 266.232 88.0811Z"
                        fill="$color" />
                </g>
            </g>
            <g id="Group 2">
                <g id="Vector_4">
                    <path
                        d="M169 121.5C169 119.567 170.567 118 172.5 118H352.5C354.433 118 356 119.567 356 121.5C356 123.433 354.433 125 352.5 125H172.5C170.567 125 169 123.433 169 121.5Z"
                        fill="$color" />
                    <path
                        d="M169 121.5C169 119.567 170.567 118 172.5 118H225.5C227.433 118 229 119.567 229 121.5C229 123.433 227.433 125 225.5 125H172.5C170.567 125 169 123.433 169 121.5Z"
                        fill="$title_color" />
                    <path
                        d="M222 121.5C222 119.015 224.015 117 226.5 117C228.985 117 231 119.015 231 121.5C231 123.985 228.985 126 226.5 126C224.015 126 222 123.985 222 121.5Z"
                        fill="$title_color" />
                    <path fill-rule="evenodd" clip-rule="evenodd"
                        d="M222.5 121.5C222.5 123.709 224.291 125.5 226.5 125.5C228.709 125.5 230.5 123.709 230.5 121.5C230.5 119.291 228.709 117.5 226.5 117.5C224.291 117.5 222.5 119.291 222.5 121.5ZM226.5 117C224.015 117 222 119.015 222 121.5C222 123.985 224.015 126 226.5 126C228.985 126 231 123.985 231 121.5C231 119.015 228.985 117 226.5 117Z"
                        fill="$color" />
                </g>
                <text id="0:00" fill="$color" xml:space="preserve" style="white-space: pre"
                    font-family="Mulish" font-size="14" letter-spacing="0em"><tspan x="172" y="142.785">$duration</tspan></text>
                <text id="0:00_2" fill="$color" xml:space="preserve" style="white-space: pre"
                    font-family="Mulish" font-size="14" letter-spacing="0em"><tspan x="328" y="142.785">0:22</tspan></text>
            </g>
        </g>
        <g id="Vector_5">
            <path
                d="M129.096 4.00146C128.845 4.10382 128.517 4.32249 128.348 4.44493C128.325 4.46142 128.323 4.49231 128.347 4.50821C128.55 4.64765 129.316 5.03971 129.34 4.90084C129.365 4.75725 129.155 4.07913 129.111 4.00458C129.107 3.99926 129.102 3.99908 129.096 4.00146Z"
                fill="#4D1F67" fill-opacity="0.5" />
            <path
                d="M124.476 15.767C126.471 14.7256 127.822 12.9382 128.374 12.0455C127.062 13.1444 124 14.4938 124 14.5218C124.042 15.0284 124.335 15.563 124.476 15.767Z"
                fill="#4D1F67" fill-opacity="0.5" />
            <path
                d="M127.188 5.29471C126.785 5.5851 126.097 6.37577 125.724 6.83224C125.686 6.87825 125.702 6.9459 125.758 6.96753C126.573 7.28073 128.051 7.21577 128.786 7.1333C128.833 7.12803 128.862 7.09069 128.839 7.05058C128.654 6.73099 127.661 5.63635 127.369 5.31704C127.328 5.27203 127.237 5.25883 127.188 5.29471Z"
                fill="#4D1F67" fill-opacity="0.5" />
            <path
                d="M140.072 4.08467C140.345 4.19896 140.714 4.45951 140.864 4.5755C140.768 4.66685 139.845 5.1361 139.822 4.98374C139.798 4.83137 140.048 4.08448 140.072 4.08467Z"
                fill="#4D1F67" fill-opacity="0.5" />
            <path
                d="M144.503 15.9254C142.525 14.8526 141.205 13.044 140.669 12.1427C141.962 13.2623 145 14.6599 145 14.6879C144.95 15.1937 144.648 15.7237 144.503 15.9254Z"
                fill="#4D1F67" fill-opacity="0.5" />
            <path
                d="M141.918 5.37646C142.319 5.64778 143.071 6.54542 143.441 7.01745C143.46 7.04082 143.451 7.0745 143.423 7.08576C142.601 7.41717 141.031 7.31737 140.297 7.21926C140.273 7.21613 140.258 7.19759 140.268 7.1767C140.398 6.90267 141.589 5.63859 141.826 5.38764C141.847 5.36547 141.893 5.35926 141.918 5.37646Z"
                fill="#4D1F67" fill-opacity="0.5" />
            <path
                d="M129.195 11.4394C127.786 14.7401 124.825 16.3706 124.825 16.3706C126.364 18.6693 129.083 21.1817 134.508 21.2246C140.143 21.2692 143.17 18.2577 144.152 16.5195C140.418 14.0271 139.862 11.5318 139.862 11.5318C139.35 11.9442 138.148 12.3352 137.611 12.4791C137.47 12.1536 137.243 11.5111 136.989 11.5091C136.735 11.507 136.456 12.1082 136.408 12.4135C136.018 11.6015 135.096 9.97231 134.529 9.95181C133.962 9.93131 133.028 11.6019 132.632 12.4397C132.58 12.1149 132.375 11.4646 132.154 11.4628C131.933 11.4611 131.58 12.107 131.408 12.43C130.513 12.2339 129.56 11.6879 129.195 11.4394Z"
                fill="#4D1F67" fill-opacity="0.5" />
            <path
                d="M128.239 23.9922C128.215 23.9162 128.182 23.8481 128.139 23.7879C128.098 23.7269 128.048 23.6748 127.989 23.6315C127.931 23.5883 127.864 23.5559 127.788 23.5343C127.713 23.5118 127.631 23.5005 127.542 23.5005C127.382 23.5005 127.24 23.5395 127.116 23.6175C126.991 23.6954 126.893 23.81 126.821 23.9612C126.751 24.1115 126.715 24.2947 126.715 24.5107C126.715 24.7287 126.751 24.9132 126.821 25.0645C126.892 25.2157 126.99 25.3307 127.116 25.4096C127.241 25.4876 127.387 25.5266 127.554 25.5266C127.704 25.5266 127.835 25.4984 127.945 25.4421C128.056 25.3857 128.142 25.3059 128.202 25.2025C128.262 25.0983 128.292 24.9762 128.292 24.8362L128.414 24.8545H127.607V24.4459H128.812V24.7925C128.812 25.0396 128.758 25.2533 128.65 25.4336C128.542 25.6139 128.393 25.753 128.203 25.8507C128.014 25.9474 127.796 25.9958 127.551 25.9958C127.277 25.9958 127.037 25.9361 126.83 25.8168C126.624 25.6966 126.463 25.5261 126.347 25.3054C126.232 25.0837 126.174 24.8207 126.174 24.5164C126.174 24.2834 126.208 24.0754 126.276 23.8922C126.345 23.709 126.44 23.5536 126.563 23.4258C126.686 23.2972 126.83 23.1995 126.995 23.1328C127.161 23.0651 127.34 23.0313 127.535 23.0313C127.699 23.0313 127.852 23.0548 127.994 23.1018C128.137 23.1478 128.263 23.2136 128.373 23.299C128.484 23.3845 128.575 23.486 128.647 23.6034C128.719 23.7208 128.765 23.8504 128.788 23.9922H128.239Z"
                fill="#4D1F67" fill-opacity="0.5" />
            <path
                d="M129.622 25.9563H129.048L130.094 23.0708H130.758L131.805 25.9563H131.231L130.437 23.6625H130.414L129.622 25.9563ZM129.641 24.8249H131.207V25.2448H129.641V24.8249Z"
                fill="#4D1F67" fill-opacity="0.5" />
            <path
                d="M132.196 25.9563V23.0708H133.31C133.538 23.0708 133.729 23.1093 133.884 23.1863C134.04 23.2633 134.157 23.3714 134.237 23.5104C134.317 23.6485 134.357 23.8095 134.357 23.9936C134.357 24.1787 134.316 24.3393 134.235 24.4755C134.155 24.6108 134.036 24.7155 133.88 24.7897C133.723 24.863 133.531 24.8996 133.303 24.8996H132.509V24.4656H133.23C133.364 24.4656 133.473 24.4478 133.558 24.4121C133.643 24.3755 133.706 24.3224 133.746 24.2529C133.788 24.1824 133.809 24.096 133.809 23.9936C133.809 23.8913 133.788 23.8039 133.746 23.7316C133.705 23.6583 133.641 23.6029 133.556 23.5653C133.471 23.5268 133.362 23.5076 133.227 23.5076H132.734V25.9563H132.196ZM133.73 24.6488L134.466 25.9563H133.865L133.143 24.6488H133.73Z"
                fill="#4D1F67" fill-opacity="0.5" />
            <path
                d="M134.852 25.9563V23.0708H135.966C136.194 23.0708 136.386 23.1093 136.54 23.1863C136.696 23.2633 136.813 23.3714 136.893 23.5104C136.973 23.6485 137.013 23.8095 137.013 23.9936C137.013 24.1787 136.972 24.3393 136.891 24.4755C136.811 24.6108 136.693 24.7155 136.536 24.7897C136.379 24.863 136.187 24.8996 135.959 24.8996H135.165V24.4656H135.886C136.02 24.4656 136.129 24.4478 136.214 24.4121C136.299 24.3755 136.362 24.3224 136.402 24.2529C136.444 24.1824 136.465 24.096 136.465 23.9936C136.465 23.8913 136.444 23.8039 136.402 23.7316C136.361 23.6583 136.298 23.6029 136.212 23.5653C136.127 23.5268 136.018 23.5076 135.883 23.5076H135.39V25.9563H134.852ZM136.387 24.6488L137.122 25.9563H136.521L135.799 24.6488H136.387Z"
                fill="#4D1F67" fill-opacity="0.5" />
            <path
                d="M139.381 23.0708H139.919V24.956C139.919 25.1626 139.868 25.3444 139.768 25.5012C139.668 25.6581 139.528 25.7807 139.347 25.869C139.166 25.9563 138.955 26 138.713 26C138.471 26 138.259 25.9563 138.078 25.869C137.897 25.7807 137.757 25.6581 137.658 25.5012C137.558 25.3444 137.508 25.1626 137.508 24.956V23.0708H138.046V24.9123C138.046 25.0325 138.073 25.1396 138.128 25.2335C138.183 25.3275 138.26 25.4012 138.36 25.4547C138.459 25.5073 138.577 25.5336 138.713 25.5336C138.85 25.5336 138.968 25.5073 139.067 25.4547C139.168 25.4012 139.245 25.3275 139.299 25.2335C139.353 25.1396 139.381 25.0325 139.381 24.9123V23.0708Z"
                fill="#4D1F67" fill-opacity="0.5" />
            <path
                d="M140.953 23.0708L141.607 24.1275H141.63L142.287 23.0708H142.901L141.985 24.5136L142.915 25.9563H142.291L141.63 24.9067H141.607L140.946 25.9563H140.325L141.263 24.5136L140.337 23.0708H140.953Z"
                fill="#4D1F67" fill-opacity="0.5" />
        </g>
    </g>
    <defs>
        <pattern id="pattern0_241_120" patternContentUnits="objectBoundingBox" width="1" height="1">
            <use xlink:href="#image0_241_120" transform="scale(0.333333)" />
        </pattern>
        <clipPath id="clip0_241_120">
            <rect width="365" height="150" fill="white" />
        </clipPath>
        <image id="image0_241_120" preserveAspectRatio="xMidYMid slice" data-name="image.png" width="3" height="3"
            xlink:href="$image" />
    </defs>
</svg>