<svg xmlns="http://www.w3.org/2000/svg" xmlns:xlink="http://www.w3.org/1999/xlink" width="360"
    height="150" viewBox="0 0 360 150" fill="none">
    <rect width="360" height="150" rx="5" fill="$bg" />
    <g xmlns="http://www.w3.org/2000/svg" id="Vector_4">
        <path
            d="M329.037 10.0021C328.691 10.1463 328.237 10.4544 328.004 10.627C327.972 10.6502 327.97 10.6937 328.002 10.7161C328.284 10.9126 329.342 11.4651 329.375 11.2694C329.409 11.067 329.118 10.1115 329.057 10.0065C329.053 9.99896 329.045 9.99871 329.037 10.0021Z"
            fill="white" />
        <path
            d="M322.657 26.5808C325.413 25.1133 327.278 22.5947 328.04 21.3368C326.228 22.8853 322 24.7867 322 24.8262C322.058 25.5399 322.462 26.2933 322.657 26.5808Z"
            fill="white" />
        <path
            d="M326.402 11.8244C325.846 12.2336 324.896 13.3477 324.38 13.9909C324.328 14.0557 324.351 14.151 324.428 14.1815C325.554 14.6228 327.594 14.5313 328.61 14.4151C328.675 14.4077 328.714 14.3551 328.682 14.2985C328.427 13.8482 327.055 12.3058 326.653 11.8558C326.596 11.7924 326.471 11.7738 326.402 11.8244Z"
            fill="white" />
        <path
            d="M344.195 10.1193C344.572 10.2804 345.081 10.6475 345.288 10.8109C345.156 10.9396 343.881 11.6009 343.849 11.3862C343.817 11.1715 344.161 10.119 344.195 10.1193Z"
            fill="white" />
        <path
            d="M350.314 26.804C347.583 25.2923 345.759 22.7439 345.018 21.4739C346.804 23.0514 351 25.0208 351 25.0603C350.93 25.773 350.514 26.5197 350.314 26.804Z"
            fill="white" />
        <path
            d="M346.744 11.9396C347.298 12.3219 348.336 13.5867 348.848 14.2519C348.873 14.2848 348.861 14.3323 348.823 14.3481C347.687 14.8151 345.519 14.6745 344.505 14.5362C344.473 14.5318 344.452 14.5057 344.465 14.4763C344.645 14.0901 346.29 12.3089 346.617 11.9553C346.646 11.9241 346.709 11.9153 346.744 11.9396Z"
            fill="white" />
        <path
            d="M329.174 20.4828C327.229 25.1338 323.14 27.4313 323.14 27.4313C325.265 30.6704 329.019 34.2106 336.512 34.2711C344.292 34.3339 348.473 30.0904 349.829 27.6411C344.672 24.1291 343.904 20.613 343.904 20.613C343.198 21.1941 341.538 21.745 340.797 21.9478C340.601 21.4892 340.288 20.5838 339.937 20.5809C339.586 20.5781 339.201 21.4252 339.135 21.8554C338.596 20.7112 337.323 18.4155 336.54 18.3866C335.757 18.3577 334.468 20.7117 333.921 21.8923C333.849 21.4347 333.566 20.5182 333.26 20.5158C332.955 20.5133 332.468 21.4235 332.23 21.8787C330.994 21.6024 329.677 20.833 329.174 20.4828Z"
            fill="white" />
        <path
            d="M327.855 38.1709C327.821 38.0637 327.775 37.9677 327.716 37.883C327.659 37.797 327.59 37.7235 327.508 37.6626C327.428 37.6017 327.336 37.5561 327.232 37.5256C327.128 37.4939 327.014 37.478 326.891 37.478C326.671 37.478 326.475 37.5329 326.302 37.6428C326.13 37.7526 325.995 37.9141 325.896 38.1272C325.798 38.339 325.75 38.5971 325.75 38.9015C325.75 39.2086 325.798 39.4686 325.896 39.6817C325.993 39.8948 326.129 40.057 326.302 40.1681C326.476 40.278 326.678 40.3329 326.907 40.3329C327.116 40.3329 327.296 40.2932 327.448 40.2138C327.602 40.1344 327.72 40.0219 327.802 39.8763C327.885 39.7294 327.927 39.5573 327.927 39.3601L328.095 39.3859H326.981V38.8102H328.646V39.2986C328.646 39.6467 328.571 39.9478 328.421 40.2019C328.272 40.456 328.066 40.6519 327.804 40.7896C327.543 40.9259 327.242 40.994 326.903 40.994C326.525 40.994 326.194 40.91 325.908 40.7419C325.624 40.5725 325.401 40.3323 325.241 40.0212C325.082 39.7089 325.003 39.3383 325.003 38.9094C325.003 38.5812 325.049 38.288 325.143 38.0299C325.238 37.7718 325.37 37.5528 325.539 37.3728C325.709 37.1914 325.908 37.0538 326.136 36.9598C326.365 36.8645 326.613 36.8169 326.881 36.8169C327.108 36.8169 327.32 36.85 327.516 36.9161C327.712 36.981 327.887 37.0736 328.039 37.1941C328.192 37.3145 328.319 37.4575 328.417 37.6229C328.516 37.7884 328.581 37.971 328.612 38.1709H327.855Z"
            fill="white" />
        <path
            d="M329.764 40.9385H328.971L330.415 36.8725H331.332L332.778 40.9385H331.985L330.89 37.7063H330.858L329.764 40.9385ZM329.79 39.3442H331.953V39.9359H329.79V39.3442Z"
            fill="white" />
        <path
            d="M333.318 40.9385V36.8725H334.856C335.172 36.8725 335.436 36.9267 335.65 37.0353C335.864 37.1438 336.027 37.296 336.136 37.4919C336.247 37.6865 336.302 37.9134 336.302 38.1729C336.302 38.4336 336.246 38.6599 336.134 38.8519C336.023 39.0424 335.86 39.19 335.644 39.2946C335.427 39.3978 335.162 39.4494 334.846 39.4494H333.751V38.838H334.746C334.931 38.838 335.081 38.8128 335.199 38.7625C335.316 38.7109 335.403 38.6361 335.459 38.5382C335.517 38.4389 335.545 38.3171 335.545 38.1729C335.545 38.0286 335.517 37.9055 335.459 37.8036C335.402 37.7004 335.314 37.6223 335.197 37.5693C335.079 37.5151 334.928 37.4879 334.742 37.4879H334.061V40.9385H333.318ZM335.437 39.0961L336.453 40.9385H335.624L334.626 39.0961H335.437Z"
            fill="white" />
        <path
            d="M336.986 40.9385V36.8725H338.524C338.839 36.8725 339.104 36.9267 339.317 37.0353C339.532 37.1438 339.695 37.296 339.804 37.4919C339.915 37.6865 339.97 37.9134 339.97 38.1729C339.97 38.4336 339.914 38.6599 339.802 38.8519C339.691 39.0424 339.528 39.19 339.311 39.2946C339.095 39.3978 338.829 39.4494 338.514 39.4494H337.419V38.838H338.414C338.599 38.838 338.749 38.8128 338.867 38.7625C338.984 38.7109 339.071 38.6361 339.127 38.5382C339.185 38.4389 339.213 38.3171 339.213 38.1729C339.213 38.0286 339.185 37.9055 339.127 37.8036C339.07 37.7004 338.982 37.6223 338.865 37.5693C338.747 37.5151 338.596 37.4879 338.41 37.4879H337.729V40.9385H336.986ZM339.105 39.0961L340.121 40.9385H339.291L338.294 39.0961H339.105Z"
            fill="white" />
        <path
            d="M343.24 36.8725H343.983V39.5289C343.983 39.82 343.913 40.0762 343.774 40.2972C343.637 40.5182 343.443 40.6909 343.194 40.8154C342.944 40.9385 342.652 41 342.319 41C341.983 41 341.691 40.9385 341.441 40.8154C341.192 40.6909 340.998 40.5182 340.861 40.2972C340.723 40.0762 340.654 39.82 340.654 39.5289V36.8725H341.397V39.4673C341.397 39.6367 341.435 39.7876 341.509 39.92C341.586 40.0523 341.692 40.1562 341.83 40.2317C341.967 40.3058 342.13 40.3429 342.319 40.3429C342.507 40.3429 342.67 40.3058 342.807 40.2317C342.946 40.1562 343.053 40.0523 343.128 39.92C343.202 39.7876 343.24 39.6367 343.24 39.4673V36.8725Z"
            fill="white" />
        <path
            d="M345.411 36.8725L346.314 38.3615H346.346L347.254 36.8725H348.101L346.837 38.9055L348.121 40.9385H347.26L346.346 39.4594H346.314L345.401 40.9385H344.544L345.84 38.9055L344.56 36.8725H345.411Z"
            fill="white" />
    </g>
    <rect x="10" y="10" width="76" height="76" rx="2" fill="url(#pattern0_202_15)" />
    <text fill="white" xml:space="preserve" style="white-space: pre" font-family="Mulish"
        font-size="16" font-weight="600" letter-spacing="0em"><tspan x="93" y="33.04">$title</tspan></text>
    <text fill="white" xml:space="preserve" style="white-space: pre" font-family="Mulish"
        font-size="11" font-weight="600" letter-spacing="0em"><tspan x="93" y="55.8975">$artist</tspan></text>
    <text fill="white" xml:space="preserve" style="white-space: pre" font-family="Mulish"
        font-size="9" font-weight="600" letter-spacing="0em"><tspan x="93" y="76.8975">00:00</tspan></text>
    <rect x="125" y="72" width="145" height="3" rx="1.5" fill="#D9D9D9" fill-opacity="0.68" />
    <text fill="white" xml:space="preserve" style="white-space: pre" font-family="Mulish"
        font-size="9" font-weight="600" letter-spacing="0em"><tspan x="278" y="76.8975">$duration</tspan></text>
    <text fill="white" xml:space="preserve" style="white-space: pre" font-family="Mulish"
        font-size="12" letter-spacing="0em"><tspan x="10" y="108.03">Reacciona para descargar:</tspan></text>
    <text fill="white" xml:space="preserve" style="white-space: pre" font-family="Mulish"
        font-size="12" letter-spacing="0em"><tspan x="10" y="135.03">Audio</tspan></text>
    <path
        d="M61.1907 123.897L61.0641 124.5H61.68H68C68.3978 124.5 68.7794 124.658 69.0607 124.939C69.342 125.221 69.5 125.602 69.5 126V128C69.5 128.191 69.4644 128.367 69.3971 128.541L66.3804 135.583L66.3804 135.583L66.3785 135.588C66.1544 136.125 65.6238 136.5 65 136.5H56C55.6022 136.5 55.2206 136.342 54.9393 136.061C54.658 135.779 54.5 135.398 54.5 135V125C54.5 124.587 54.664 124.213 54.9436 123.934L61.1717 117.705L61.8764 118.404C61.8767 118.404 61.877 118.404 61.8772 118.404C62.0571 118.585 62.17 118.839 62.17 119.11C62.17 119.19 62.1627 119.266 62.1501 119.33L61.1907 123.897ZM51.5 125.5V136.5H48.5V125.5H51.5Z"
        fill="#458FFF" stroke="#DBB7FF" />
    <text fill="white" xml:space="preserve" style="white-space: pre" font-family="Mulish"
        font-size="12" letter-spacing="0em"><tspan x="90" y="135.03">Video</tspan></text>
    <path
        d="M136.655 135.192L136.655 135.191C133.838 132.637 131.541 130.55 129.942 128.594C128.348 126.644 127.5 124.885 127.5 122.995C127.5 119.903 129.913 117.5 132.995 117.5C134.74 117.5 136.423 118.315 137.52 119.593L137.899 120.035L138.279 119.593C139.375 118.315 141.059 117.5 142.804 117.5C145.885 117.5 148.298 119.903 148.298 122.995C148.298 124.885 147.45 126.644 145.857 128.594C144.258 130.55 141.96 132.637 139.144 135.191L139.143 135.192L137.899 136.324L136.655 135.192Z"
        fill="#F70707" stroke="#D7CDCD" />
    <text fill="white" xml:space="preserve" style="white-space: pre" font-family="Mulish"
        font-size="12" letter-spacing="0em"><tspan x="168.798" y="135.03">Canción</tspan></text>
    <path
        d="M235.516 133.718C233.734 135.499 231.318 136.5 228.798 136.5C226.279 136.5 223.862 135.499 222.081 133.718C220.299 131.936 219.298 129.52 219.298 127C219.298 124.48 220.299 122.064 222.081 120.282C223.862 118.501 226.279 117.5 228.798 117.5C231.318 117.5 233.734 118.501 235.516 120.282C237.297 122.064 238.298 124.48 238.298 127C238.298 129.52 237.297 131.936 235.516 133.718ZM226.926 123.888C226.598 123.559 226.153 123.375 225.689 123.375C225.225 123.375 224.78 123.559 224.452 123.888C224.123 124.216 223.939 124.661 223.939 125.125C223.939 125.589 224.123 126.034 224.452 126.362C224.78 126.691 225.225 126.875 225.689 126.875C226.153 126.875 226.598 126.691 226.926 126.362C227.255 126.034 227.439 125.589 227.439 125.125C227.439 124.661 227.255 124.216 226.926 123.888ZM230.702 123.888C230.373 124.216 230.189 124.661 230.189 125.125C230.189 125.589 230.373 126.034 230.702 126.362C231.03 126.691 231.475 126.875 231.939 126.875C232.403 126.875 232.848 126.691 233.176 126.362C233.505 126.034 233.689 125.589 233.689 125.125C233.689 124.661 233.505 124.216 233.176 123.888C232.848 123.559 232.403 123.375 231.939 123.375C231.475 123.375 231.03 123.559 230.702 123.888ZM230.92 128.629C230.357 128.066 229.594 127.75 228.798 127.75C228.003 127.75 227.24 128.066 226.677 128.629C226.114 129.191 225.798 129.954 225.798 130.75C225.798 131.546 226.114 132.309 226.677 132.871C227.24 133.434 228.003 133.75 228.798 133.75C229.594 133.75 230.357 133.434 230.92 132.871C231.482 132.309 231.798 131.546 231.798 130.75C231.798 129.954 231.482 129.191 230.92 128.629Z"
        fill="#EEFF27" stroke="#AFAFAF" />
    <defs>
        <pattern id="pattern0_202_15" patternContentUnits="objectBoundingBox" width="1" height="1">
            <use xlink:href="#image0_202_15" transform="scale(0.0021097)" />
        </pattern>
        <image id="image0_202_15" width="474" height="474" xlink:href="$image" />
    </defs>
</svg>