<svg width="365" height="150" viewBox="0 0 365 150" fill="none" xmlns="http://www.w3.org/2000/svg"
    xmlns:xlink="http://www.w3.org/1999/xlink">
    <g id="Frame 7" clip-path="url(#clip0_258_79)">
        <rect width="365" height="150" fill="$bg" />
        <rect id="image" width="150" height="150" fill="url(#pattern0_258_79)" />
        <g id="Frame 3">
            <text id="title" fill="$title_color" xml:space="preserve" text-anchor="middle"
                alignment-baseline="middle" style="white-space: pre"
                font-family="Mulish" font-size="17" font-weight="bold" letter-spacing="0em"><tspan x="256.7" y="30.4941">$title</tspan></text>
            <text id="artist" fill="$color" xml:space="preserve" text-anchor="middle"
                alignment-baseline="middle" style="white-space: pre"
                font-family="Mulish" font-size="15" letter-spacing="0em"><tspan x="256.7" y="59.127">$artist</tspan></text>
            <g id="buttons">
                <g id="Group 3">
                    <path id="Vector"
                        d="M214.755 89C214.701 89 214.647 88.9844 214.601 88.955L208.754 85.2883C208.708 85.259 208.669 85.217 208.642 85.1664C208.615 85.1158 208.601 85.0584 208.601 85C208.601 84.9416 208.615 84.8842 208.642 84.8336C208.669 84.783 208.708 84.741 208.754 84.7117L214.601 81.045C214.647 81.0157 214.7 81.0002 214.754 81.0002C214.808 81.0001 214.862 81.0155 214.908 81.0447C214.955 81.0739 214.994 81.116 215.021 81.1666C215.048 81.2173 215.062 81.2748 215.062 81.3333V88.6667C215.062 88.7551 215.03 88.8399 214.972 88.9024C214.915 88.9649 214.836 89 214.755 89ZM207.062 81H207.678V89H207.062V81Z"
                        fill="$title_color" />
                </g>
                <g id="Group 6">
                    <path id="Vector_2"
                        d="M300.245 89C300.299 89 300.353 88.9844 300.399 88.955L306.246 85.2883C306.292 85.259 306.331 85.217 306.358 85.1664C306.385 85.1158 306.399 85.0584 306.399 85C306.399 84.9416 306.385 84.8842 306.358 84.8336C306.331 84.783 306.292 84.741 306.246 84.7117L300.399 81.045C300.353 81.0157 300.3 81.0002 300.246 81.0002C300.192 81.0001 300.138 81.0155 300.092 81.0447C300.045 81.0739 300.006 81.116 299.979 81.1666C299.952 81.2173 299.938 81.2748 299.938 81.3333V88.6667C299.938 88.7551 299.97 88.8399 300.028 88.9024C300.085 88.9649 300.164 89 300.245 89ZM307.938 81H307.322V89H307.938V81Z"
                        fill="$title_color" />
                </g>
                <g id="Group 4">
                    <path id="Vector_3"
                        d="M254.813 79.0811H253.529C253.188 79.0811 252.862 79.2164 252.621 79.4571C252.38 79.6979 252.245 80.0244 252.245 80.3649V90.6352C252.245 90.9757 252.38 91.3022 252.621 91.543C252.862 91.7837 253.188 91.919 253.529 91.919H254.813C255.153 91.919 255.48 91.7837 255.721 91.543C255.961 91.3022 256.097 90.9757 256.097 90.6352V80.3649C256.097 80.0244 255.961 79.6979 255.721 79.4571C255.48 79.2164 255.153 79.0811 254.813 79.0811ZM261.232 79.0811H259.948C259.607 79.0811 259.281 79.2164 259.04 79.4571C258.799 79.6979 258.664 80.0244 258.664 80.3649V90.6352C258.664 90.9757 258.799 91.3022 259.04 91.543C259.281 91.7837 259.607 91.919 259.948 91.919H261.232C261.572 91.919 261.899 91.7837 262.139 91.543C262.38 91.3022 262.515 90.9757 262.515 90.6352V80.3649C262.515 80.0244 262.38 79.6979 262.139 79.4571C261.899 79.2164 261.572 79.0811 261.232 79.0811Z"
                        fill="$title_color" />
                </g>
            </g>
            <g id="progress">
                <g id="progressbar">
                    <path
                        d="M164 112.5C164 110.567 165.567 109 167.5 109H347.5C349.433 109 351 110.567 351 112.5C351 114.433 349.433 116 347.5 116H167.5C165.567 116 164 114.433 164 112.5Z"
                        fill="$vibrant" />
                    <path
                        d="M164 112.5C164 110.567 165.567 109 167.5 109H220.5C222.433 109 224 110.567 224 112.5C224 114.433 222.433 116 220.5 116H167.5C165.567 116 164 114.433 164 112.5Z"
                        fill="$title_color" />
                    <path
                        d="M217 112.5C217 110.015 219.015 108 221.5 108C223.985 108 226 110.015 226 112.5C226 114.985 223.985 117 221.5 117C219.015 117 217 114.985 217 112.5Z"
                        fill="$title_color" />
                    <path fill-rule="evenodd" clip-rule="evenodd"
                        d="M217.5 112.5C217.5 114.709 219.291 116.5 221.5 116.5C223.709 116.5 225.5 114.709 225.5 112.5C225.5 110.291 223.709 108.5 221.5 108.5C219.291 108.5 217.5 110.291 217.5 112.5ZM221.5 108C219.015 108 217 110.015 217 112.5C217 114.985 219.015 117 221.5 117C223.985 117 226 114.985 226 112.5C226 110.015 223.985 108 221.5 108Z"
                        fill="$vibrant" />
                </g>
                <text id="duration" fill="$color" xml:space="preserve" style="white-space: pre"
                    font-family="Mulish" font-size="14" letter-spacing="0em"><tspan x="167" y="133.785">$duration</tspan></text>
                <text id="0:00" fill="$color" xml:space="preserve" style="white-space: pre"
                    font-family="Mulish" font-size="14" letter-spacing="0em"><tspan x="323" y="133.785">0:00</tspan></text>
            </g>
            <text id="Powered by Garrux" fill="$color" xml:space="preserve" style="white-space: pre"
                font-family="Mulish" font-size="6" letter-spacing="0em"><tspan x="232" y="146.051">Powered by Garrux</tspan></text>
        </g>
    </g>
    <defs>
        <pattern id="pattern0_258_79" patternContentUnits="objectBoundingBox" width="1" height="1">
            <use xlink:href="#image0_258_79" />
        </pattern>
        <clipPath id="clip0_258_79">
            <rect width="365" height="150" fill="white" />
        </clipPath>
        <image id="image0_258_79" preserveAspectRatio="xMidYMid slice" data-name="image.png"
            width="1" height="1"
            xlink:href="$image" />
    </defs>
</svg>